<mxfile host="www.draw.io" modified="2020-02-27T03:59:08.888Z" agent="Mozilla/5.0 (Windows NT 10.0; WOW64) AppleWebKit/537.36 (KHTML, like Gecko) Chrome/76.0.3809.100 Safari/537.36" etag="EfLQyzhuwO1noZHOMNtB" version="12.7.8" type="github">
  <diagram id="C5RBs43oDa-KdzZeNtuy" name="Page-1">
    <mxGraphModel dx="2886" dy="1429" grid="1" gridSize="10" guides="1" tooltips="1" connect="1" arrows="1" fold="1" page="1" pageScale="1" pageWidth="827" pageHeight="1169" math="0" shadow="0">
      <root>
        <mxCell id="WIyWlLk6GJQsqaUBKTNV-0" />
        <mxCell id="WIyWlLk6GJQsqaUBKTNV-1" parent="WIyWlLk6GJQsqaUBKTNV-0" />
        <mxCell id="v6Hlf75vWQxJamgNcmzF-2" value="" style="edgeStyle=orthogonalEdgeStyle;rounded=0;orthogonalLoop=1;jettySize=auto;html=1;" parent="WIyWlLk6GJQsqaUBKTNV-1" source="v6Hlf75vWQxJamgNcmzF-1" target="WIyWlLk6GJQsqaUBKTNV-3" edge="1">
          <mxGeometry relative="1" as="geometry" />
        </mxCell>
        <mxCell id="WIyWlLk6GJQsqaUBKTNV-2" value="" style="rounded=0;html=1;jettySize=auto;orthogonalLoop=1;fontSize=11;endArrow=block;endFill=0;endSize=8;strokeWidth=1;shadow=0;labelBackgroundColor=none;edgeStyle=orthogonalEdgeStyle;" parent="WIyWlLk6GJQsqaUBKTNV-1" source="WIyWlLk6GJQsqaUBKTNV-3" edge="1">
          <mxGeometry relative="1" as="geometry">
            <mxPoint x="264" y="327" as="targetPoint" />
          </mxGeometry>
        </mxCell>
        <mxCell id="WIyWlLk6GJQsqaUBKTNV-3" value="初始化时钟" style="rounded=1;whiteSpace=wrap;html=1;fontSize=12;glass=0;strokeWidth=1;shadow=0;" parent="WIyWlLk6GJQsqaUBKTNV-1" vertex="1">
          <mxGeometry x="204" y="227" width="120" height="40" as="geometry" />
        </mxCell>
        <mxCell id="v6Hlf75vWQxJamgNcmzF-1" value="程序开始" style="rounded=1;whiteSpace=wrap;html=1;fontSize=12;glass=0;strokeWidth=1;shadow=0;" parent="WIyWlLk6GJQsqaUBKTNV-1" vertex="1">
          <mxGeometry x="204" y="137" width="120" height="40" as="geometry" />
        </mxCell>
        <mxCell id="v6Hlf75vWQxJamgNcmzF-14" value="" style="edgeStyle=orthogonalEdgeStyle;rounded=0;orthogonalLoop=1;jettySize=auto;html=1;" parent="WIyWlLk6GJQsqaUBKTNV-1" source="v6Hlf75vWQxJamgNcmzF-6" target="v6Hlf75vWQxJamgNcmzF-13" edge="1">
          <mxGeometry relative="1" as="geometry" />
        </mxCell>
        <mxCell id="v6Hlf75vWQxJamgNcmzF-6" value="初始化ucos系统" style="rounded=1;whiteSpace=wrap;html=1;fontSize=12;glass=0;strokeWidth=1;shadow=0;" parent="WIyWlLk6GJQsqaUBKTNV-1" vertex="1">
          <mxGeometry x="204" y="327" width="120" height="40" as="geometry" />
        </mxCell>
        <mxCell id="v6Hlf75vWQxJamgNcmzF-16" value="" style="edgeStyle=orthogonalEdgeStyle;rounded=0;orthogonalLoop=1;jettySize=auto;html=1;" parent="WIyWlLk6GJQsqaUBKTNV-1" source="v6Hlf75vWQxJamgNcmzF-13" target="v6Hlf75vWQxJamgNcmzF-15" edge="1">
          <mxGeometry relative="1" as="geometry">
            <Array as="points">
              <mxPoint x="374" y="467" />
              <mxPoint x="374" y="162" />
            </Array>
          </mxGeometry>
        </mxCell>
        <mxCell id="v6Hlf75vWQxJamgNcmzF-13" value="创建App_Task_Start任务并启动任务调度" style="rounded=1;whiteSpace=wrap;html=1;fontSize=12;glass=0;strokeWidth=1;shadow=0;" parent="WIyWlLk6GJQsqaUBKTNV-1" vertex="1">
          <mxGeometry x="184" y="447" width="160" height="40" as="geometry" />
        </mxCell>
        <mxCell id="v6Hlf75vWQxJamgNcmzF-18" value="" style="edgeStyle=orthogonalEdgeStyle;rounded=0;orthogonalLoop=1;jettySize=auto;html=1;" parent="WIyWlLk6GJQsqaUBKTNV-1" source="v6Hlf75vWQxJamgNcmzF-15" target="v6Hlf75vWQxJamgNcmzF-17" edge="1">
          <mxGeometry relative="1" as="geometry" />
        </mxCell>
        <mxCell id="v6Hlf75vWQxJamgNcmzF-15" value="进行串口、CAN、GPIO硬件初始化，创建CAN数据信号量" style="rounded=1;whiteSpace=wrap;html=1;fontSize=12;glass=0;strokeWidth=1;shadow=0;" parent="WIyWlLk6GJQsqaUBKTNV-1" vertex="1">
          <mxGeometry x="434" y="137" width="210" height="50" as="geometry" />
        </mxCell>
        <mxCell id="v6Hlf75vWQxJamgNcmzF-20" value="" style="edgeStyle=orthogonalEdgeStyle;rounded=0;orthogonalLoop=1;jettySize=auto;html=1;" parent="WIyWlLk6GJQsqaUBKTNV-1" source="v6Hlf75vWQxJamgNcmzF-17" target="v6Hlf75vWQxJamgNcmzF-19" edge="1">
          <mxGeometry relative="1" as="geometry" />
        </mxCell>
        <mxCell id="v6Hlf75vWQxJamgNcmzF-17" value="进行串口、CAN、GPIO硬件初始化，创建CAN数据信号量" style="rounded=1;whiteSpace=wrap;html=1;fontSize=12;glass=0;strokeWidth=1;shadow=0;" parent="WIyWlLk6GJQsqaUBKTNV-1" vertex="1">
          <mxGeometry x="434" y="239" width="210" height="50" as="geometry" />
        </mxCell>
        <mxCell id="v6Hlf75vWQxJamgNcmzF-22" value="" style="edgeStyle=orthogonalEdgeStyle;rounded=0;orthogonalLoop=1;jettySize=auto;html=1;" parent="WIyWlLk6GJQsqaUBKTNV-1" source="v6Hlf75vWQxJamgNcmzF-19" target="v6Hlf75vWQxJamgNcmzF-21" edge="1">
          <mxGeometry relative="1" as="geometry" />
        </mxCell>
        <mxCell id="v6Hlf75vWQxJamgNcmzF-19" value="创建&lt;span lang=&quot;EN-US&quot; style=&quot;font-size: 10.5pt ; font-family: &amp;#34;calibri&amp;#34; , sans-serif&quot;&gt;Can_RX_Task&lt;/span&gt;&lt;span style=&quot;font-size: 10.5pt&quot;&gt;、&lt;/span&gt;&lt;span lang=&quot;EN-US&quot; style=&quot;font-size: 10.5pt ; font-family: &amp;#34;calibri&amp;#34; , sans-serif&quot;&gt;GPSLed_Task&lt;/span&gt;&lt;span style=&quot;font-size: 10.5pt&quot;&gt;、&lt;/span&gt;&lt;span lang=&quot;EN-US&quot; style=&quot;font-size: 10.5pt ; font-family: &amp;#34;calibri&amp;#34; , sans-serif&quot;&gt;GSMLed_Task3个任务&lt;/span&gt;" style="rounded=1;whiteSpace=wrap;html=1;fontSize=12;glass=0;strokeWidth=1;shadow=0;" parent="WIyWlLk6GJQsqaUBKTNV-1" vertex="1">
          <mxGeometry x="434" y="337" width="210" height="50" as="geometry" />
        </mxCell>
        <mxCell id="v6Hlf75vWQxJamgNcmzF-21" value="三个任务开始调度" style="rounded=1;whiteSpace=wrap;html=1;fontSize=12;glass=0;strokeWidth=1;shadow=0;" parent="WIyWlLk6GJQsqaUBKTNV-1" vertex="1">
          <mxGeometry x="434" y="427" width="210" height="50" as="geometry" />
        </mxCell>
        <mxCell id="v6Hlf75vWQxJamgNcmzF-28" value="" style="edgeStyle=orthogonalEdgeStyle;rounded=0;orthogonalLoop=1;jettySize=auto;html=1;" parent="WIyWlLk6GJQsqaUBKTNV-1" source="v6Hlf75vWQxJamgNcmzF-24" target="v6Hlf75vWQxJamgNcmzF-27" edge="1">
          <mxGeometry relative="1" as="geometry" />
        </mxCell>
        <mxCell id="v6Hlf75vWQxJamgNcmzF-24" value="任务开始" style="rounded=1;whiteSpace=wrap;html=1;fontSize=12;glass=0;strokeWidth=1;shadow=0;" parent="WIyWlLk6GJQsqaUBKTNV-1" vertex="1">
          <mxGeometry x="314" y="640" width="180" height="50" as="geometry" />
        </mxCell>
        <object label="" id="v6Hlf75vWQxJamgNcmzF-30">
          <mxCell style="edgeStyle=orthogonalEdgeStyle;rounded=0;orthogonalLoop=1;jettySize=auto;html=1;" parent="WIyWlLk6GJQsqaUBKTNV-1" source="v6Hlf75vWQxJamgNcmzF-27" target="v6Hlf75vWQxJamgNcmzF-29" edge="1">
            <mxGeometry relative="1" as="geometry" />
          </mxCell>
        </object>
        <mxCell id="v6Hlf75vWQxJamgNcmzF-27" value="等待CAN中断发送的信号量" style="rounded=1;whiteSpace=wrap;html=1;fontSize=12;glass=0;strokeWidth=1;shadow=0;" parent="WIyWlLk6GJQsqaUBKTNV-1" vertex="1">
          <mxGeometry x="314" y="730" width="180" height="50" as="geometry" />
        </mxCell>
        <object label="" id="v6Hlf75vWQxJamgNcmzF-35">
          <mxCell style="edgeStyle=orthogonalEdgeStyle;rounded=0;orthogonalLoop=1;jettySize=auto;html=1;" parent="WIyWlLk6GJQsqaUBKTNV-1" source="v6Hlf75vWQxJamgNcmzF-29" target="v6Hlf75vWQxJamgNcmzF-33" edge="1">
            <mxGeometry relative="1" as="geometry" />
          </mxCell>
        </object>
        <mxCell id="v6Hlf75vWQxJamgNcmzF-39" style="edgeStyle=orthogonalEdgeStyle;rounded=0;orthogonalLoop=1;jettySize=auto;html=1;entryX=1;entryY=0.5;entryDx=0;entryDy=0;" parent="WIyWlLk6GJQsqaUBKTNV-1" source="v6Hlf75vWQxJamgNcmzF-29" target="v6Hlf75vWQxJamgNcmzF-27" edge="1">
          <mxGeometry relative="1" as="geometry">
            <Array as="points">
              <mxPoint x="404" y="860" />
              <mxPoint x="514" y="860" />
              <mxPoint x="514" y="755" />
            </Array>
          </mxGeometry>
        </mxCell>
        <mxCell id="v6Hlf75vWQxJamgNcmzF-29" value="信号量到达" style="rhombus;whiteSpace=wrap;html=1;shadow=0;fontFamily=Helvetica;fontSize=12;align=center;strokeWidth=1;spacing=6;spacingTop=-4;" parent="WIyWlLk6GJQsqaUBKTNV-1" vertex="1">
          <mxGeometry x="354" y="820" width="100" height="80" as="geometry" />
        </mxCell>
        <mxCell id="v6Hlf75vWQxJamgNcmzF-33" value="解析CAN数据" style="rounded=1;whiteSpace=wrap;html=1;fontSize=12;glass=0;strokeWidth=1;shadow=0;" parent="WIyWlLk6GJQsqaUBKTNV-1" vertex="1">
          <mxGeometry x="334" y="950" width="140" height="90" as="geometry" />
        </mxCell>
        <mxCell id="v6Hlf75vWQxJamgNcmzF-36" value="YES" style="text;html=1;strokeColor=none;fillColor=none;align=center;verticalAlign=middle;whiteSpace=wrap;rounded=0;" parent="WIyWlLk6GJQsqaUBKTNV-1" vertex="1">
          <mxGeometry x="404" y="910" width="40" height="20" as="geometry" />
        </mxCell>
        <mxCell id="v6Hlf75vWQxJamgNcmzF-40" value="NO" style="text;html=1;strokeColor=none;fillColor=none;align=center;verticalAlign=middle;whiteSpace=wrap;rounded=0;" parent="WIyWlLk6GJQsqaUBKTNV-1" vertex="1">
          <mxGeometry x="464" y="830" width="40" height="20" as="geometry" />
        </mxCell>
        <mxCell id="v6Hlf75vWQxJamgNcmzF-41" value="" style="edgeStyle=orthogonalEdgeStyle;rounded=0;orthogonalLoop=1;jettySize=auto;html=1;" parent="WIyWlLk6GJQsqaUBKTNV-1" source="v6Hlf75vWQxJamgNcmzF-42" target="v6Hlf75vWQxJamgNcmzF-44" edge="1">
          <mxGeometry relative="1" as="geometry" />
        </mxCell>
        <mxCell id="v6Hlf75vWQxJamgNcmzF-42" value="任务开始" style="rounded=1;whiteSpace=wrap;html=1;fontSize=12;glass=0;strokeWidth=1;shadow=0;" parent="WIyWlLk6GJQsqaUBKTNV-1" vertex="1">
          <mxGeometry x="1080" y="160" width="180" height="50" as="geometry" />
        </mxCell>
        <object label="" id="v6Hlf75vWQxJamgNcmzF-43">
          <mxCell style="edgeStyle=orthogonalEdgeStyle;rounded=0;orthogonalLoop=1;jettySize=auto;html=1;" parent="WIyWlLk6GJQsqaUBKTNV-1" source="v6Hlf75vWQxJamgNcmzF-44" edge="1">
            <mxGeometry relative="1" as="geometry">
              <mxPoint x="1169.9999999999995" y="340" as="targetPoint" />
            </mxGeometry>
          </mxCell>
        </object>
        <mxCell id="v6Hlf75vWQxJamgNcmzF-44" value="初始化GSM数据结构" style="rounded=1;whiteSpace=wrap;html=1;fontSize=12;glass=0;strokeWidth=1;shadow=0;" parent="WIyWlLk6GJQsqaUBKTNV-1" vertex="1">
          <mxGeometry x="1080" y="250" width="180" height="50" as="geometry" />
        </mxCell>
        <mxCell id="v6Hlf75vWQxJamgNcmzF-54" value="" style="edgeStyle=orthogonalEdgeStyle;rounded=0;orthogonalLoop=1;jettySize=auto;html=1;" parent="WIyWlLk6GJQsqaUBKTNV-1" source="v6Hlf75vWQxJamgNcmzF-52" target="v6Hlf75vWQxJamgNcmzF-53" edge="1">
          <mxGeometry relative="1" as="geometry" />
        </mxCell>
        <mxCell id="v6Hlf75vWQxJamgNcmzF-52" value="初始化4G模块" style="rounded=1;whiteSpace=wrap;html=1;fontSize=12;glass=0;strokeWidth=1;shadow=0;" parent="WIyWlLk6GJQsqaUBKTNV-1" vertex="1">
          <mxGeometry x="1080" y="335" width="180" height="50" as="geometry" />
        </mxCell>
        <mxCell id="v6Hlf75vWQxJamgNcmzF-56" value="" style="edgeStyle=orthogonalEdgeStyle;rounded=0;orthogonalLoop=1;jettySize=auto;html=1;" parent="WIyWlLk6GJQsqaUBKTNV-1" source="v6Hlf75vWQxJamgNcmzF-53" target="v6Hlf75vWQxJamgNcmzF-55" edge="1">
          <mxGeometry relative="1" as="geometry" />
        </mxCell>
        <mxCell id="v6Hlf75vWQxJamgNcmzF-53" value="登录平台" style="rounded=1;whiteSpace=wrap;html=1;fontSize=12;glass=0;strokeWidth=1;shadow=0;" parent="WIyWlLk6GJQsqaUBKTNV-1" vertex="1">
          <mxGeometry x="1080" y="423" width="180" height="50" as="geometry" />
        </mxCell>
        <mxCell id="v6Hlf75vWQxJamgNcmzF-58" value="" style="edgeStyle=orthogonalEdgeStyle;rounded=0;orthogonalLoop=1;jettySize=auto;html=1;" parent="WIyWlLk6GJQsqaUBKTNV-1" source="v6Hlf75vWQxJamgNcmzF-55" target="v6Hlf75vWQxJamgNcmzF-57" edge="1">
          <mxGeometry relative="1" as="geometry" />
        </mxCell>
        <mxCell id="v6Hlf75vWQxJamgNcmzF-55" value="车辆登录" style="rounded=1;whiteSpace=wrap;html=1;fontSize=12;glass=0;strokeWidth=1;shadow=0;" parent="WIyWlLk6GJQsqaUBKTNV-1" vertex="1">
          <mxGeometry x="1080" y="503" width="180" height="50" as="geometry" />
        </mxCell>
        <mxCell id="v6Hlf75vWQxJamgNcmzF-60" value="" style="edgeStyle=orthogonalEdgeStyle;rounded=0;orthogonalLoop=1;jettySize=auto;html=1;" parent="WIyWlLk6GJQsqaUBKTNV-1" source="v6Hlf75vWQxJamgNcmzF-57" edge="1">
          <mxGeometry relative="1" as="geometry">
            <mxPoint x="1170" y="723" as="targetPoint" />
          </mxGeometry>
        </mxCell>
        <mxCell id="v6Hlf75vWQxJamgNcmzF-66" value="" style="edgeStyle=orthogonalEdgeStyle;rounded=0;orthogonalLoop=1;jettySize=auto;html=1;" parent="WIyWlLk6GJQsqaUBKTNV-1" source="v6Hlf75vWQxJamgNcmzF-57" edge="1">
          <mxGeometry relative="1" as="geometry">
            <mxPoint x="1300" y="633" as="targetPoint" />
          </mxGeometry>
        </mxCell>
        <mxCell id="v6Hlf75vWQxJamgNcmzF-57" value="是否登录成功" style="rhombus;whiteSpace=wrap;html=1;shadow=0;fontFamily=Helvetica;fontSize=12;align=center;strokeWidth=1;spacing=6;spacingTop=-4;" parent="WIyWlLk6GJQsqaUBKTNV-1" vertex="1">
          <mxGeometry x="1120" y="593" width="100" height="80" as="geometry" />
        </mxCell>
        <mxCell id="v6Hlf75vWQxJamgNcmzF-61" value="YES" style="text;html=1;strokeColor=none;fillColor=none;align=center;verticalAlign=middle;whiteSpace=wrap;rounded=0;" parent="WIyWlLk6GJQsqaUBKTNV-1" vertex="1">
          <mxGeometry x="1180" y="688" width="40" height="20" as="geometry" />
        </mxCell>
        <mxCell id="v6Hlf75vWQxJamgNcmzF-64" value="" style="edgeStyle=orthogonalEdgeStyle;rounded=0;orthogonalLoop=1;jettySize=auto;html=1;" parent="WIyWlLk6GJQsqaUBKTNV-1" source="v6Hlf75vWQxJamgNcmzF-62" target="v6Hlf75vWQxJamgNcmzF-63" edge="1">
          <mxGeometry relative="1" as="geometry" />
        </mxCell>
        <mxCell id="v6Hlf75vWQxJamgNcmzF-62" value="向平台发送数据" style="rounded=1;whiteSpace=wrap;html=1;fontSize=12;glass=0;strokeWidth=1;shadow=0;" parent="WIyWlLk6GJQsqaUBKTNV-1" vertex="1">
          <mxGeometry x="1080" y="733" width="180" height="50" as="geometry" />
        </mxCell>
        <mxCell id="v6Hlf75vWQxJamgNcmzF-69" style="edgeStyle=orthogonalEdgeStyle;rounded=0;orthogonalLoop=1;jettySize=auto;html=1;entryX=0;entryY=0.5;entryDx=0;entryDy=0;" parent="WIyWlLk6GJQsqaUBKTNV-1" source="v6Hlf75vWQxJamgNcmzF-63" target="v6Hlf75vWQxJamgNcmzF-57" edge="1">
          <mxGeometry relative="1" as="geometry">
            <Array as="points">
              <mxPoint x="1170" y="853" />
              <mxPoint x="1020" y="853" />
              <mxPoint x="1020" y="633" />
            </Array>
          </mxGeometry>
        </mxCell>
        <mxCell id="v6Hlf75vWQxJamgNcmzF-63" value="打包数据" style="rounded=1;whiteSpace=wrap;html=1;fontSize=12;glass=0;strokeWidth=1;shadow=0;" parent="WIyWlLk6GJQsqaUBKTNV-1" vertex="1">
          <mxGeometry x="1080" y="833" width="180" height="50" as="geometry" />
        </mxCell>
        <mxCell id="v6Hlf75vWQxJamgNcmzF-67" value="重新登录" style="rounded=1;whiteSpace=wrap;html=1;fontSize=12;glass=0;strokeWidth=1;shadow=0;" parent="WIyWlLk6GJQsqaUBKTNV-1" vertex="1">
          <mxGeometry x="1294" y="608" width="126" height="50" as="geometry" />
        </mxCell>
        <mxCell id="v6Hlf75vWQxJamgNcmzF-68" value="NO" style="text;html=1;strokeColor=none;fillColor=none;align=center;verticalAlign=middle;whiteSpace=wrap;rounded=0;" parent="WIyWlLk6GJQsqaUBKTNV-1" vertex="1">
          <mxGeometry x="1230" y="608" width="40" height="20" as="geometry" />
        </mxCell>
        <mxCell id="v6Hlf75vWQxJamgNcmzF-72" value="" style="rounded=1;whiteSpace=wrap;html=1;arcSize=0;" parent="WIyWlLk6GJQsqaUBKTNV-1" vertex="1">
          <mxGeometry x="1920" y="470" width="300" height="260" as="geometry" />
        </mxCell>
        <mxCell id="v6Hlf75vWQxJamgNcmzF-73" value="USB" style="rounded=0;whiteSpace=wrap;html=1;" parent="WIyWlLk6GJQsqaUBKTNV-1" vertex="1">
          <mxGeometry x="2010" y="700" width="50" height="30" as="geometry" />
        </mxCell>
        <mxCell id="v6Hlf75vWQxJamgNcmzF-74" value="" style="shape=link;html=1;" parent="WIyWlLk6GJQsqaUBKTNV-1" edge="1">
          <mxGeometry width="50" height="50" relative="1" as="geometry">
            <mxPoint x="2034" y="810" as="sourcePoint" />
            <mxPoint x="2034.41" y="730" as="targetPoint" />
          </mxGeometry>
        </mxCell>
        <mxCell id="v6Hlf75vWQxJamgNcmzF-78" value="DC/DC&lt;br&gt;24V转5V" style="whiteSpace=wrap;html=1;aspect=fixed;" parent="WIyWlLk6GJQsqaUBKTNV-1" vertex="1">
          <mxGeometry x="1995" y="785" width="80" height="80" as="geometry" />
        </mxCell>
        <mxCell id="v6Hlf75vWQxJamgNcmzF-79" value="SIM卡" style="rounded=0;whiteSpace=wrap;html=1;" parent="WIyWlLk6GJQsqaUBKTNV-1" vertex="1">
          <mxGeometry x="2100" y="470" width="70" height="60" as="geometry" />
        </mxCell>
        <mxCell id="v6Hlf75vWQxJamgNcmzF-81" value="" style="endArrow=none;html=1;fillColor=#e51400;strokeColor=#B20000;jumpSize=12;strokeWidth=4;" parent="WIyWlLk6GJQsqaUBKTNV-1" edge="1">
          <mxGeometry width="50" height="50" relative="1" as="geometry">
            <mxPoint x="1800" y="920" as="sourcePoint" />
            <mxPoint x="2320" y="920" as="targetPoint" />
          </mxGeometry>
        </mxCell>
        <mxCell id="v6Hlf75vWQxJamgNcmzF-83" value="24V" style="text;html=1;align=center;verticalAlign=middle;resizable=0;points=[];labelBackgroundColor=#ffffff;fontSize=15;" parent="v6Hlf75vWQxJamgNcmzF-81" vertex="1" connectable="0">
          <mxGeometry x="-0.3837" y="2" relative="1" as="geometry">
            <mxPoint x="5.29" y="-18" as="offset" />
          </mxGeometry>
        </mxCell>
        <mxCell id="v6Hlf75vWQxJamgNcmzF-82" value="" style="endArrow=none;html=1;strokeWidth=4;" parent="WIyWlLk6GJQsqaUBKTNV-1" edge="1">
          <mxGeometry width="50" height="50" relative="1" as="geometry">
            <mxPoint x="1800" y="950" as="sourcePoint" />
            <mxPoint x="2320" y="950" as="targetPoint" />
          </mxGeometry>
        </mxCell>
        <mxCell id="v6Hlf75vWQxJamgNcmzF-84" value="GND" style="text;html=1;align=center;verticalAlign=middle;resizable=0;points=[];labelBackgroundColor=#ffffff;" parent="v6Hlf75vWQxJamgNcmzF-82" vertex="1" connectable="0">
          <mxGeometry x="-0.3787" y="1" relative="1" as="geometry">
            <mxPoint x="4.12" y="-9" as="offset" />
          </mxGeometry>
        </mxCell>
        <mxCell id="v6Hlf75vWQxJamgNcmzF-86" value="" style="endArrow=none;html=1;strokeWidth=4;fontSize=15;fillColor=#e51400;strokeColor=#B20000;entryX=0.25;entryY=1;entryDx=0;entryDy=0;" parent="WIyWlLk6GJQsqaUBKTNV-1" target="v6Hlf75vWQxJamgNcmzF-78" edge="1">
          <mxGeometry width="50" height="50" relative="1" as="geometry">
            <mxPoint x="2015" y="920" as="sourcePoint" />
            <mxPoint x="2015" y="870" as="targetPoint" />
          </mxGeometry>
        </mxCell>
        <mxCell id="v6Hlf75vWQxJamgNcmzF-87" value="" style="endArrow=none;html=1;strokeWidth=4;fontSize=15;entryX=0.5;entryY=1;entryDx=0;entryDy=0;" parent="WIyWlLk6GJQsqaUBKTNV-1" target="v6Hlf75vWQxJamgNcmzF-78" edge="1">
          <mxGeometry width="50" height="50" relative="1" as="geometry">
            <mxPoint x="2035" y="950" as="sourcePoint" />
            <mxPoint x="2035" y="870" as="targetPoint" />
          </mxGeometry>
        </mxCell>
        <mxCell id="v6Hlf75vWQxJamgNcmzF-88" value="" style="endArrow=none;html=1;strokeWidth=4;fillColor=#e3c800;strokeColor=#B09500;" parent="WIyWlLk6GJQsqaUBKTNV-1" edge="1">
          <mxGeometry width="50" height="50" relative="1" as="geometry">
            <mxPoint x="1839.9999999999995" y="380" as="sourcePoint" />
            <mxPoint x="2390" y="380" as="targetPoint" />
          </mxGeometry>
        </mxCell>
        <mxCell id="v6Hlf75vWQxJamgNcmzF-89" value="CANH" style="text;html=1;align=center;verticalAlign=middle;resizable=0;points=[];labelBackgroundColor=#ffffff;" parent="v6Hlf75vWQxJamgNcmzF-88" vertex="1" connectable="0">
          <mxGeometry x="-0.3787" y="1" relative="1" as="geometry">
            <mxPoint x="4.12" y="-9" as="offset" />
          </mxGeometry>
        </mxCell>
        <mxCell id="v6Hlf75vWQxJamgNcmzF-90" value="整车电源" style="text;html=1;strokeColor=none;fillColor=none;align=center;verticalAlign=middle;whiteSpace=wrap;rounded=0;fontSize=15;" parent="WIyWlLk6GJQsqaUBKTNV-1" vertex="1">
          <mxGeometry x="1770" y="890" width="80" height="20" as="geometry" />
        </mxCell>
        <mxCell id="v6Hlf75vWQxJamgNcmzF-91" value="" style="endArrow=none;html=1;strokeWidth=4;fillColor=#008a00;strokeColor=#005700;" parent="WIyWlLk6GJQsqaUBKTNV-1" edge="1">
          <mxGeometry width="50" height="50" relative="1" as="geometry">
            <mxPoint x="1839.9999999999995" y="410" as="sourcePoint" />
            <mxPoint x="2390" y="410" as="targetPoint" />
          </mxGeometry>
        </mxCell>
        <mxCell id="v6Hlf75vWQxJamgNcmzF-92" value="CANL" style="text;html=1;align=center;verticalAlign=middle;resizable=0;points=[];labelBackgroundColor=#ffffff;" parent="v6Hlf75vWQxJamgNcmzF-91" vertex="1" connectable="0">
          <mxGeometry x="-0.3787" y="1" relative="1" as="geometry">
            <mxPoint x="4.12" y="-9" as="offset" />
          </mxGeometry>
        </mxCell>
        <mxCell id="v6Hlf75vWQxJamgNcmzF-93" value="整车CAN1网络" style="text;html=1;strokeColor=none;fillColor=none;align=center;verticalAlign=middle;whiteSpace=wrap;rounded=0;fontSize=15;" parent="WIyWlLk6GJQsqaUBKTNV-1" vertex="1">
          <mxGeometry x="1810" y="420" width="110" height="20" as="geometry" />
        </mxCell>
        <mxCell id="v6Hlf75vWQxJamgNcmzF-94" value="" style="rounded=1;whiteSpace=wrap;html=1;fontSize=15;" parent="WIyWlLk6GJQsqaUBKTNV-1" vertex="1">
          <mxGeometry x="2010" y="550" width="210" height="100" as="geometry" />
        </mxCell>
        <mxCell id="v6Hlf75vWQxJamgNcmzF-97" value="" style="ellipse;whiteSpace=wrap;html=1;aspect=fixed;fontSize=15;" parent="WIyWlLk6GJQsqaUBKTNV-1" vertex="1">
          <mxGeometry x="2190" y="560" width="20" height="20" as="geometry" />
        </mxCell>
        <mxCell id="v6Hlf75vWQxJamgNcmzF-98" value="" style="ellipse;whiteSpace=wrap;html=1;aspect=fixed;fontSize=15;" parent="WIyWlLk6GJQsqaUBKTNV-1" vertex="1">
          <mxGeometry x="2190" y="590" width="20" height="20" as="geometry" />
        </mxCell>
        <mxCell id="v6Hlf75vWQxJamgNcmzF-99" value="" style="ellipse;whiteSpace=wrap;html=1;aspect=fixed;fontSize=15;" parent="WIyWlLk6GJQsqaUBKTNV-1" vertex="1">
          <mxGeometry x="2190" y="620" width="20" height="20" as="geometry" />
        </mxCell>
        <mxCell id="v6Hlf75vWQxJamgNcmzF-102" value="" style="endArrow=none;html=1;strokeWidth=4;fontSize=15;exitX=1;exitY=0.5;exitDx=0;exitDy=0;" parent="WIyWlLk6GJQsqaUBKTNV-1" edge="1">
          <mxGeometry width="50" height="50" relative="1" as="geometry">
            <mxPoint x="2200" y="570" as="sourcePoint" />
            <mxPoint x="2320" y="570" as="targetPoint" />
          </mxGeometry>
        </mxCell>
        <mxCell id="v6Hlf75vWQxJamgNcmzF-103" value="" style="endArrow=none;html=1;strokeWidth=4;fontSize=15;" parent="WIyWlLk6GJQsqaUBKTNV-1" edge="1">
          <mxGeometry width="50" height="50" relative="1" as="geometry">
            <mxPoint x="2320.17" y="570" as="sourcePoint" />
            <mxPoint x="2320" y="505" as="targetPoint" />
          </mxGeometry>
        </mxCell>
        <mxCell id="v6Hlf75vWQxJamgNcmzF-108" value="" style="triangle;whiteSpace=wrap;html=1;fontSize=15;direction=south;" parent="WIyWlLk6GJQsqaUBKTNV-1" vertex="1">
          <mxGeometry x="2300" y="480" width="40" height="25" as="geometry" />
        </mxCell>
        <mxCell id="v6Hlf75vWQxJamgNcmzF-109" value="" style="endArrow=none;html=1;strokeWidth=4;fontSize=15;exitX=1;exitY=0.5;exitDx=0;exitDy=0;" parent="WIyWlLk6GJQsqaUBKTNV-1" edge="1">
          <mxGeometry width="50" height="50" relative="1" as="geometry">
            <mxPoint x="2200" y="599.8" as="sourcePoint" />
            <mxPoint x="2360" y="600" as="targetPoint" />
            <Array as="points">
              <mxPoint x="2240" y="599.8" />
            </Array>
          </mxGeometry>
        </mxCell>
        <mxCell id="v6Hlf75vWQxJamgNcmzF-110" value="" style="endArrow=none;html=1;strokeWidth=4;fontSize=15;" parent="WIyWlLk6GJQsqaUBKTNV-1" edge="1">
          <mxGeometry width="50" height="50" relative="1" as="geometry">
            <mxPoint x="2360" y="600" as="sourcePoint" />
            <mxPoint x="2360" y="505" as="targetPoint" />
          </mxGeometry>
        </mxCell>
        <mxCell id="v6Hlf75vWQxJamgNcmzF-111" value="" style="triangle;whiteSpace=wrap;html=1;fontSize=15;direction=south;" parent="WIyWlLk6GJQsqaUBKTNV-1" vertex="1">
          <mxGeometry x="2340" y="480" width="40" height="25" as="geometry" />
        </mxCell>
        <mxCell id="v6Hlf75vWQxJamgNcmzF-112" value="CAN" style="rounded=0;whiteSpace=wrap;html=1;fontSize=15;textDirection=ltr;horizontal=0;" parent="WIyWlLk6GJQsqaUBKTNV-1" vertex="1">
          <mxGeometry x="2200" y="510" width="20" height="35" as="geometry" />
        </mxCell>
        <mxCell id="v6Hlf75vWQxJamgNcmzF-113" value="" style="endArrow=none;html=1;strokeWidth=4;fontSize=15;fillColor=#e3c800;strokeColor=#B09500;" parent="WIyWlLk6GJQsqaUBKTNV-1" edge="1">
          <mxGeometry width="50" height="50" relative="1" as="geometry">
            <mxPoint x="2250" y="520" as="sourcePoint" />
            <mxPoint x="2250" y="380" as="targetPoint" />
          </mxGeometry>
        </mxCell>
        <mxCell id="v6Hlf75vWQxJamgNcmzF-114" value="" style="endArrow=none;html=1;strokeWidth=4;fontSize=15;exitX=1;exitY=0.25;exitDx=0;exitDy=0;fillColor=#e3c800;strokeColor=#B09500;" parent="WIyWlLk6GJQsqaUBKTNV-1" source="v6Hlf75vWQxJamgNcmzF-112" edge="1">
          <mxGeometry width="50" height="50" relative="1" as="geometry">
            <mxPoint x="2260" y="550" as="sourcePoint" />
            <mxPoint x="2250" y="519" as="targetPoint" />
          </mxGeometry>
        </mxCell>
        <mxCell id="v6Hlf75vWQxJamgNcmzF-115" value="" style="endArrow=none;html=1;strokeWidth=4;fontSize=15;exitX=1.027;exitY=0.814;exitDx=0;exitDy=0;fillColor=#008a00;strokeColor=#005700;exitPerimeter=0;" parent="WIyWlLk6GJQsqaUBKTNV-1" source="v6Hlf75vWQxJamgNcmzF-112" edge="1">
          <mxGeometry width="50" height="50" relative="1" as="geometry">
            <mxPoint x="2230" y="580" as="sourcePoint" />
            <mxPoint x="2280" y="540" as="targetPoint" />
          </mxGeometry>
        </mxCell>
        <mxCell id="v6Hlf75vWQxJamgNcmzF-116" value="" style="endArrow=none;html=1;strokeWidth=4;fontSize=15;fillColor=#008a00;strokeColor=#005700;" parent="WIyWlLk6GJQsqaUBKTNV-1" edge="1">
          <mxGeometry width="50" height="50" relative="1" as="geometry">
            <mxPoint x="2280" y="540" as="sourcePoint" />
            <mxPoint x="2280" y="410" as="targetPoint" />
          </mxGeometry>
        </mxCell>
        <mxCell id="v6Hlf75vWQxJamgNcmzF-117" value="4G天线" style="text;html=1;strokeColor=none;fillColor=none;align=center;verticalAlign=middle;whiteSpace=wrap;rounded=0;fontSize=11;" parent="WIyWlLk6GJQsqaUBKTNV-1" vertex="1">
          <mxGeometry x="2280" y="450" width="60" height="20" as="geometry" />
        </mxCell>
        <mxCell id="v6Hlf75vWQxJamgNcmzF-118" value="GPS天线" style="text;html=1;strokeColor=none;fillColor=none;align=center;verticalAlign=middle;whiteSpace=wrap;rounded=0;fontSize=11;" parent="WIyWlLk6GJQsqaUBKTNV-1" vertex="1">
          <mxGeometry x="2340" y="450" width="60" height="20" as="geometry" />
        </mxCell>
        <mxCell id="v6Hlf75vWQxJamgNcmzF-124" value="GSM任务" style="text;html=1;strokeColor=none;fillColor=none;align=center;verticalAlign=middle;whiteSpace=wrap;rounded=0;fontSize=15;" parent="WIyWlLk6GJQsqaUBKTNV-1" vertex="1">
          <mxGeometry x="1120" y="110" width="110" height="20" as="geometry" />
        </mxCell>
        <mxCell id="v6Hlf75vWQxJamgNcmzF-125" value="主程序" style="text;html=1;strokeColor=none;fillColor=none;align=center;verticalAlign=middle;whiteSpace=wrap;rounded=0;fontSize=15;" parent="WIyWlLk6GJQsqaUBKTNV-1" vertex="1">
          <mxGeometry x="354" y="90" width="110" height="20" as="geometry" />
        </mxCell>
        <mxCell id="v6Hlf75vWQxJamgNcmzF-126" value="CAN任务" style="text;html=1;strokeColor=none;fillColor=none;align=center;verticalAlign=middle;whiteSpace=wrap;rounded=0;fontSize=15;" parent="WIyWlLk6GJQsqaUBKTNV-1" vertex="1">
          <mxGeometry x="344" y="600" width="110" height="20" as="geometry" />
        </mxCell>
      </root>
    </mxGraphModel>
  </diagram>
</mxfile>
